# xmcd CD database file
#
# Track frame offsets:
#	150
#	15347
#	31247
#	46595
#	61140
#	79842
#	95657
#	109595
#	126732
#	147617
#	164555
#	179197
#	196732
#	211322
#	230607
#	253644
#	273060
#	293738
#	316847
#	331315
#
# Disc length: 4603 seconds
#
# Revision: 0
# Processed by: cddbd v1.5.1PL0 Copyright (c) Steve Scherf et al.
# Submitted via: CDex 1.50
#
DISCID=1f11f914
DTITLE=Norah Jones - Norah Jones
DYEAR=1900
DGENRE=Jazz
TTITLE0=Sunrise
TTITLE1=What am I to you
TTITLE2=Those sweet words
TTITLE3=Carnival Town
TTITLE4=In the Morning
TTITLE5=Behere to love me
TTITLE6=Creeping
TTITLE7=Tose
TTITLE8=Humble me
TTITLE9=Above ground
TTITLE10=The long way home
TTITLE11=The prettiese thing
TTITLE12=Don't miss you at all
TTITLE13=Sleepless nights
TTITLE14=New York City
TTITLE15=Deceptirveiy yours
TTITLE16=All your love
TTITLE17=Heart of mine
TTITLE18=Things you don't there to do
TTITLE19=Don't know why
EXTD=
EXTT0=
EXTT1=
EXTT2=
EXTT3=
EXTT4=
EXTT5=
EXTT6=
EXTT7=
EXTT8=
EXTT9=
EXTT10=
EXTT11=
EXTT12=
EXTT13=
EXTT14=
EXTT15=
EXTT16=
EXTT17=
EXTT18=
EXTT19=
PLAYORDER=
